<mxfile host="65bd71144e">
    <diagram name="Page-1" id="F9AcOjO8NRYZuvRRTAf_">
        <mxGraphModel dx="574" dy="1353" grid="1" gridSize="10" guides="1" tooltips="1" connect="1" arrows="1" fold="1" page="1" pageScale="1" pageWidth="850" pageHeight="1100" math="0" shadow="0">
            <root>
                <mxCell id="0"/>
                <mxCell id="1" parent="0"/>
                <mxCell id="N1fM-q_MzPPThsU6vhpB-49" style="edgeStyle=orthogonalEdgeStyle;rounded=0;orthogonalLoop=1;jettySize=auto;html=1;exitX=0.25;exitY=1;exitDx=0;exitDy=0;entryX=0.25;entryY=1;entryDx=0;entryDy=0;endArrow=none;endFill=0;fillColor=#ffcd28;gradientColor=#ffa500;strokeColor=#d79b00;" parent="1" target="N1fM-q_MzPPThsU6vhpB-9" edge="1">
                    <mxGeometry relative="1" as="geometry">
                        <Array as="points">
                            <mxPoint x="375" y="279"/>
                            <mxPoint x="375" y="360"/>
                            <mxPoint x="745" y="360"/>
                        </Array>
                        <mxPoint x="373.03040350712195" y="277.19145030009713" as="sourcePoint"/>
                    </mxGeometry>
                </mxCell>
                <mxCell id="N1fM-q_MzPPThsU6vhpB-66" style="edgeStyle=orthogonalEdgeStyle;rounded=0;orthogonalLoop=1;jettySize=auto;html=1;exitX=0.75;exitY=0;exitDx=0;exitDy=0;fillColor=#a20025;strokeColor=#6F0000;" parent="1" source="N1fM-q_MzPPThsU6vhpB-1" edge="1">
                    <mxGeometry relative="1" as="geometry">
                        <mxPoint x="680" y="180" as="targetPoint"/>
                    </mxGeometry>
                </mxCell>
                <mxCell id="N1fM-q_MzPPThsU6vhpB-67" style="edgeStyle=orthogonalEdgeStyle;rounded=0;orthogonalLoop=1;jettySize=auto;html=1;exitX=0.75;exitY=1;exitDx=0;exitDy=0;entryX=0.75;entryY=0;entryDx=0;entryDy=0;endArrow=none;endFill=0;fillColor=#a20025;strokeColor=#6F0000;" parent="1" source="N1fM-q_MzPPThsU6vhpB-1" target="N1fM-q_MzPPThsU6vhpB-4" edge="1">
                    <mxGeometry relative="1" as="geometry"/>
                </mxCell>
                <mxCell id="N1fM-q_MzPPThsU6vhpB-1" value="W" style="rounded=0;whiteSpace=wrap;html=1;" parent="1" vertex="1">
                    <mxGeometry x="370" y="240" width="20" height="20" as="geometry"/>
                </mxCell>
                <mxCell id="N1fM-q_MzPPThsU6vhpB-60" style="edgeStyle=orthogonalEdgeStyle;rounded=0;orthogonalLoop=1;jettySize=auto;html=1;exitX=0.25;exitY=1;exitDx=0;exitDy=0;entryX=0.25;entryY=1;entryDx=0;entryDy=0;endArrow=none;endFill=0;fillColor=#d5e8d4;gradientColor=#97d077;strokeColor=#82b366;" parent="1" source="N1fM-q_MzPPThsU6vhpB-2" target="N1fM-q_MzPPThsU6vhpB-6" edge="1">
                    <mxGeometry relative="1" as="geometry">
                        <Array as="points">
                            <mxPoint x="455" y="460"/>
                            <mxPoint x="495" y="460"/>
                        </Array>
                    </mxGeometry>
                </mxCell>
                <mxCell id="N1fM-q_MzPPThsU6vhpB-2" value="D" style="rounded=0;whiteSpace=wrap;html=1;" parent="1" vertex="1">
                    <mxGeometry x="450" y="310" width="20" height="20" as="geometry"/>
                </mxCell>
                <mxCell id="N1fM-q_MzPPThsU6vhpB-58" style="edgeStyle=orthogonalEdgeStyle;rounded=0;orthogonalLoop=1;jettySize=auto;html=1;exitX=0.25;exitY=1;exitDx=0;exitDy=0;entryX=0.25;entryY=1;entryDx=0;entryDy=0;endArrow=none;endFill=0;fillColor=#dae8fc;gradientColor=#7ea6e0;strokeColor=#6c8ebf;" parent="1" source="N1fM-q_MzPPThsU6vhpB-3" target="N1fM-q_MzPPThsU6vhpB-7" edge="1">
                    <mxGeometry relative="1" as="geometry">
                        <Array as="points">
                            <mxPoint x="305" y="450"/>
                            <mxPoint x="585" y="450"/>
                        </Array>
                    </mxGeometry>
                </mxCell>
                <mxCell id="N1fM-q_MzPPThsU6vhpB-70" style="edgeStyle=orthogonalEdgeStyle;rounded=0;orthogonalLoop=1;jettySize=auto;html=1;exitX=0.75;exitY=1;exitDx=0;exitDy=0;entryX=0.75;entryY=0;entryDx=0;entryDy=0;endArrow=none;endFill=0;fillColor=#a20025;strokeColor=#6F0000;" parent="1" source="N1fM-q_MzPPThsU6vhpB-3" target="N1fM-q_MzPPThsU6vhpB-2" edge="1">
                    <mxGeometry relative="1" as="geometry">
                        <mxPoint x="250" y="180" as="targetPoint"/>
                        <Array as="points">
                            <mxPoint x="315" y="360"/>
                            <mxPoint x="251" y="360"/>
                            <mxPoint x="251" y="180"/>
                            <mxPoint x="465" y="180"/>
                        </Array>
                    </mxGeometry>
                </mxCell>
                <mxCell id="N1fM-q_MzPPThsU6vhpB-3" value="A" style="rounded=0;whiteSpace=wrap;html=1;" parent="1" vertex="1">
                    <mxGeometry x="300" y="310" width="20" height="20" as="geometry"/>
                </mxCell>
                <mxCell id="N1fM-q_MzPPThsU6vhpB-55" style="edgeStyle=orthogonalEdgeStyle;rounded=0;orthogonalLoop=1;jettySize=auto;html=1;exitX=0.25;exitY=1;exitDx=0;exitDy=0;entryX=0.25;entryY=1;entryDx=0;entryDy=0;endArrow=none;endFill=0;fillColor=#f5f5f5;gradientColor=#b3b3b3;strokeColor=#666666;" parent="1" source="N1fM-q_MzPPThsU6vhpB-4" target="N1fM-q_MzPPThsU6vhpB-8" edge="1">
                    <mxGeometry relative="1" as="geometry">
                        <Array as="points">
                            <mxPoint x="375" y="470"/>
                            <mxPoint x="675" y="470"/>
                        </Array>
                    </mxGeometry>
                </mxCell>
                <mxCell id="N1fM-q_MzPPThsU6vhpB-68" style="edgeStyle=orthogonalEdgeStyle;rounded=0;orthogonalLoop=1;jettySize=auto;html=1;exitX=0.75;exitY=1;exitDx=0;exitDy=0;entryX=0.75;entryY=0;entryDx=0;entryDy=0;endArrow=none;endFill=0;fillColor=#a20025;strokeColor=#6F0000;" parent="1" source="N1fM-q_MzPPThsU6vhpB-4" target="N1fM-q_MzPPThsU6vhpB-3" edge="1">
                    <mxGeometry relative="1" as="geometry">
                        <Array as="points">
                            <mxPoint x="385" y="430"/>
                            <mxPoint x="345" y="430"/>
                            <mxPoint x="345" y="290"/>
                            <mxPoint x="315" y="290"/>
                        </Array>
                    </mxGeometry>
                </mxCell>
                <mxCell id="N1fM-q_MzPPThsU6vhpB-4" value="S" style="rounded=0;whiteSpace=wrap;html=1;" parent="1" vertex="1">
                    <mxGeometry x="370" y="380" width="20" height="20" as="geometry"/>
                </mxCell>
                <mxCell id="N1fM-q_MzPPThsU6vhpB-61" style="edgeStyle=orthogonalEdgeStyle;rounded=0;orthogonalLoop=1;jettySize=auto;html=1;exitX=0.25;exitY=1;exitDx=0;exitDy=0;fillColor=#d5e8d4;gradientColor=#97d077;strokeColor=#82b366;" parent="1" source="N1fM-q_MzPPThsU6vhpB-6" edge="1">
                    <mxGeometry relative="1" as="geometry">
                        <mxPoint x="800" y="500" as="targetPoint"/>
                    </mxGeometry>
                </mxCell>
                <mxCell id="N1fM-q_MzPPThsU6vhpB-6" value="SE" style="rounded=0;whiteSpace=wrap;html=1;" parent="1" vertex="1">
                    <mxGeometry x="490" y="400" width="20" height="20" as="geometry"/>
                </mxCell>
                <mxCell id="N1fM-q_MzPPThsU6vhpB-59" style="edgeStyle=orthogonalEdgeStyle;rounded=0;orthogonalLoop=1;jettySize=auto;html=1;exitX=0.25;exitY=1;exitDx=0;exitDy=0;fillColor=#dae8fc;gradientColor=#7ea6e0;strokeColor=#6c8ebf;" parent="1" source="N1fM-q_MzPPThsU6vhpB-7" edge="1">
                    <mxGeometry relative="1" as="geometry">
                        <mxPoint x="810" y="470" as="targetPoint"/>
                        <Array as="points">
                            <mxPoint x="585" y="440"/>
                            <mxPoint x="811" y="440"/>
                            <mxPoint x="811" y="460"/>
                            <mxPoint x="810" y="460"/>
                        </Array>
                    </mxGeometry>
                </mxCell>
                <mxCell id="N1fM-q_MzPPThsU6vhpB-76" style="edgeStyle=orthogonalEdgeStyle;rounded=0;orthogonalLoop=1;jettySize=auto;html=1;exitX=0.75;exitY=1;exitDx=0;exitDy=0;entryX=0.75;entryY=0;entryDx=0;entryDy=0;endArrow=none;endFill=0;fillColor=#6a00ff;strokeColor=#3700CC;" parent="1" source="N1fM-q_MzPPThsU6vhpB-7" target="N1fM-q_MzPPThsU6vhpB-6" edge="1">
                    <mxGeometry relative="1" as="geometry">
                        <mxPoint x="550" y="560" as="targetPoint"/>
                        <Array as="points">
                            <mxPoint x="595" y="490"/>
                            <mxPoint x="530" y="490"/>
                            <mxPoint x="530" y="380"/>
                            <mxPoint x="505" y="380"/>
                        </Array>
                    </mxGeometry>
                </mxCell>
                <mxCell id="N1fM-q_MzPPThsU6vhpB-7" value="ST" style="rounded=0;whiteSpace=wrap;html=1;" parent="1" vertex="1">
                    <mxGeometry x="580" y="400" width="20" height="20" as="geometry"/>
                </mxCell>
                <mxCell id="N1fM-q_MzPPThsU6vhpB-56" style="edgeStyle=orthogonalEdgeStyle;rounded=0;orthogonalLoop=1;jettySize=auto;html=1;exitX=0.25;exitY=1;exitDx=0;exitDy=0;fillColor=#f5f5f5;gradientColor=#b3b3b3;strokeColor=#666666;" parent="1" source="N1fM-q_MzPPThsU6vhpB-8" edge="1">
                    <mxGeometry relative="1" as="geometry">
                        <mxPoint x="830" y="430" as="targetPoint"/>
                    </mxGeometry>
                </mxCell>
                <mxCell id="N1fM-q_MzPPThsU6vhpB-75" style="edgeStyle=orthogonalEdgeStyle;rounded=0;orthogonalLoop=1;jettySize=auto;html=1;exitX=0.75;exitY=1;exitDx=0;exitDy=0;entryX=0.75;entryY=0;entryDx=0;entryDy=0;endArrow=none;endFill=0;fillColor=#6a00ff;strokeColor=#3700CC;" parent="1" source="N1fM-q_MzPPThsU6vhpB-8" target="N1fM-q_MzPPThsU6vhpB-7" edge="1">
                    <mxGeometry relative="1" as="geometry"/>
                </mxCell>
                <mxCell id="N1fM-q_MzPPThsU6vhpB-8" value="B" style="rounded=0;whiteSpace=wrap;html=1;" parent="1" vertex="1">
                    <mxGeometry x="670" y="310" width="20" height="20" as="geometry"/>
                </mxCell>
                <mxCell id="N1fM-q_MzPPThsU6vhpB-57" style="edgeStyle=orthogonalEdgeStyle;rounded=0;orthogonalLoop=1;jettySize=auto;html=1;exitX=0.25;exitY=1;exitDx=0;exitDy=0;fillColor=#ffcd28;gradientColor=#ffa500;strokeColor=#d79b00;" parent="1" source="N1fM-q_MzPPThsU6vhpB-9" edge="1">
                    <mxGeometry relative="1" as="geometry">
                        <mxPoint x="840" y="370" as="targetPoint"/>
                        <Array as="points">
                            <mxPoint x="745" y="370"/>
                        </Array>
                    </mxGeometry>
                </mxCell>
                <mxCell id="N1fM-q_MzPPThsU6vhpB-72" style="edgeStyle=orthogonalEdgeStyle;rounded=0;orthogonalLoop=1;jettySize=auto;html=1;exitX=0.75;exitY=0;exitDx=0;exitDy=0;fillColor=#6a00ff;strokeColor=#3700CC;" parent="1" source="N1fM-q_MzPPThsU6vhpB-9" edge="1">
                    <mxGeometry relative="1" as="geometry">
                        <mxPoint x="754.6666666666667" y="180" as="targetPoint"/>
                    </mxGeometry>
                </mxCell>
                <mxCell id="N1fM-q_MzPPThsU6vhpB-74" style="edgeStyle=orthogonalEdgeStyle;rounded=0;orthogonalLoop=1;jettySize=auto;html=1;exitX=0.75;exitY=1;exitDx=0;exitDy=0;entryX=0.75;entryY=0;entryDx=0;entryDy=0;endArrow=none;endFill=0;fillColor=#6a00ff;strokeColor=#3700CC;" parent="1" source="N1fM-q_MzPPThsU6vhpB-9" target="N1fM-q_MzPPThsU6vhpB-8" edge="1">
                    <mxGeometry relative="1" as="geometry">
                        <mxPoint x="790" y="250" as="targetPoint"/>
                        <Array as="points">
                            <mxPoint x="755" y="350"/>
                            <mxPoint x="791" y="350"/>
                            <mxPoint x="791" y="250"/>
                            <mxPoint x="685" y="250"/>
                        </Array>
                    </mxGeometry>
                </mxCell>
                <mxCell id="N1fM-q_MzPPThsU6vhpB-9" value="A" style="rounded=0;whiteSpace=wrap;html=1;" parent="1" vertex="1">
                    <mxGeometry x="740" y="310" width="20" height="20" as="geometry"/>
                </mxCell>
                <mxCell id="N1fM-q_MzPPThsU6vhpB-25" style="edgeStyle=orthogonalEdgeStyle;rounded=0;orthogonalLoop=1;jettySize=auto;html=1;exitX=0.25;exitY=1;exitDx=0;exitDy=0;entryX=0.25;entryY=1;entryDx=0;entryDy=0;endArrow=none;endFill=0;" parent="1" source="N1fM-q_MzPPThsU6vhpB-10" target="N1fM-q_MzPPThsU6vhpB-11" edge="1">
                    <mxGeometry relative="1" as="geometry"/>
                </mxCell>
                <mxCell id="N1fM-q_MzPPThsU6vhpB-41" style="edgeStyle=orthogonalEdgeStyle;rounded=0;orthogonalLoop=1;jettySize=auto;html=1;exitX=0.75;exitY=1;exitDx=0;exitDy=0;entryX=0.75;entryY=0;entryDx=0;entryDy=0;" parent="1" source="N1fM-q_MzPPThsU6vhpB-10" target="N1fM-q_MzPPThsU6vhpB-30" edge="1">
                    <mxGeometry relative="1" as="geometry"/>
                </mxCell>
                <mxCell id="N1fM-q_MzPPThsU6vhpB-44" style="edgeStyle=orthogonalEdgeStyle;rounded=0;orthogonalLoop=1;jettySize=auto;html=1;exitX=0.75;exitY=0;exitDx=0;exitDy=0;" parent="1" source="N1fM-q_MzPPThsU6vhpB-10" edge="1">
                    <mxGeometry relative="1" as="geometry">
                        <mxPoint x="730" y="-140" as="targetPoint"/>
                        <Array as="points">
                            <mxPoint x="515" y="-150"/>
                            <mxPoint x="730" y="-150"/>
                        </Array>
                    </mxGeometry>
                </mxCell>
                <mxCell id="N1fM-q_MzPPThsU6vhpB-10" value="" style="rounded=0;whiteSpace=wrap;html=1;" parent="1" vertex="1">
                    <mxGeometry x="500" y="-130" width="20" height="20" as="geometry"/>
                </mxCell>
                <mxCell id="N1fM-q_MzPPThsU6vhpB-26" style="edgeStyle=orthogonalEdgeStyle;rounded=0;orthogonalLoop=1;jettySize=auto;html=1;exitX=0.25;exitY=1;exitDx=0;exitDy=0;" parent="1" source="N1fM-q_MzPPThsU6vhpB-11" edge="1">
                    <mxGeometry relative="1" as="geometry">
                        <mxPoint x="640" y="-90" as="targetPoint"/>
                        <Array as="points">
                            <mxPoint x="545" y="-90"/>
                        </Array>
                    </mxGeometry>
                </mxCell>
                <mxCell id="N1fM-q_MzPPThsU6vhpB-45" style="edgeStyle=orthogonalEdgeStyle;rounded=0;orthogonalLoop=1;jettySize=auto;html=1;exitX=0.75;exitY=1;exitDx=0;exitDy=0;entryX=0.75;entryY=0;entryDx=0;entryDy=0;" parent="1" source="N1fM-q_MzPPThsU6vhpB-11" target="N1fM-q_MzPPThsU6vhpB-32" edge="1">
                    <mxGeometry relative="1" as="geometry"/>
                </mxCell>
                <mxCell id="N1fM-q_MzPPThsU6vhpB-48" style="edgeStyle=orthogonalEdgeStyle;rounded=0;orthogonalLoop=1;jettySize=auto;html=1;exitX=0.75;exitY=0;exitDx=0;exitDy=0;" parent="1" source="N1fM-q_MzPPThsU6vhpB-11" edge="1">
                    <mxGeometry relative="1" as="geometry">
                        <mxPoint x="730" y="-130" as="targetPoint"/>
                        <Array as="points">
                            <mxPoint x="555" y="-140"/>
                            <mxPoint x="730" y="-140"/>
                        </Array>
                    </mxGeometry>
                </mxCell>
                <mxCell id="N1fM-q_MzPPThsU6vhpB-11" value="" style="rounded=0;whiteSpace=wrap;html=1;" parent="1" vertex="1">
                    <mxGeometry x="540" y="-130" width="20" height="20" as="geometry"/>
                </mxCell>
                <mxCell id="N1fM-q_MzPPThsU6vhpB-29" style="edgeStyle=orthogonalEdgeStyle;rounded=0;orthogonalLoop=1;jettySize=auto;html=1;exitX=0.25;exitY=1;exitDx=0;exitDy=0;entryX=0.25;entryY=1;entryDx=0;entryDy=0;endArrow=none;endFill=0;" parent="1" source="N1fM-q_MzPPThsU6vhpB-30" target="N1fM-q_MzPPThsU6vhpB-32" edge="1">
                    <mxGeometry relative="1" as="geometry"/>
                </mxCell>
                <mxCell id="N1fM-q_MzPPThsU6vhpB-42" style="edgeStyle=orthogonalEdgeStyle;rounded=0;orthogonalLoop=1;jettySize=auto;html=1;exitX=0.75;exitY=1;exitDx=0;exitDy=0;entryX=0.75;entryY=0;entryDx=0;entryDy=0;" parent="1" source="N1fM-q_MzPPThsU6vhpB-30" target="N1fM-q_MzPPThsU6vhpB-34" edge="1">
                    <mxGeometry relative="1" as="geometry"/>
                </mxCell>
                <mxCell id="N1fM-q_MzPPThsU6vhpB-30" value="" style="rounded=0;whiteSpace=wrap;html=1;" parent="1" vertex="1">
                    <mxGeometry x="500" y="-60" width="20" height="20" as="geometry"/>
                </mxCell>
                <mxCell id="N1fM-q_MzPPThsU6vhpB-31" style="edgeStyle=orthogonalEdgeStyle;rounded=0;orthogonalLoop=1;jettySize=auto;html=1;exitX=0.25;exitY=1;exitDx=0;exitDy=0;" parent="1" source="N1fM-q_MzPPThsU6vhpB-32" edge="1">
                    <mxGeometry relative="1" as="geometry">
                        <mxPoint x="640" y="-20" as="targetPoint"/>
                        <Array as="points">
                            <mxPoint x="545" y="-20"/>
                        </Array>
                    </mxGeometry>
                </mxCell>
                <mxCell id="N1fM-q_MzPPThsU6vhpB-46" style="edgeStyle=orthogonalEdgeStyle;rounded=0;orthogonalLoop=1;jettySize=auto;html=1;exitX=0.75;exitY=1;exitDx=0;exitDy=0;entryX=0.75;entryY=0;entryDx=0;entryDy=0;" parent="1" source="N1fM-q_MzPPThsU6vhpB-32" target="N1fM-q_MzPPThsU6vhpB-36" edge="1">
                    <mxGeometry relative="1" as="geometry"/>
                </mxCell>
                <mxCell id="N1fM-q_MzPPThsU6vhpB-32" value="" style="rounded=0;whiteSpace=wrap;html=1;" parent="1" vertex="1">
                    <mxGeometry x="540" y="-60" width="20" height="20" as="geometry"/>
                </mxCell>
                <mxCell id="N1fM-q_MzPPThsU6vhpB-33" style="edgeStyle=orthogonalEdgeStyle;rounded=0;orthogonalLoop=1;jettySize=auto;html=1;exitX=0.25;exitY=1;exitDx=0;exitDy=0;entryX=0.25;entryY=1;entryDx=0;entryDy=0;endArrow=none;endFill=0;" parent="1" source="N1fM-q_MzPPThsU6vhpB-34" target="N1fM-q_MzPPThsU6vhpB-36" edge="1">
                    <mxGeometry relative="1" as="geometry"/>
                </mxCell>
                <mxCell id="N1fM-q_MzPPThsU6vhpB-43" style="edgeStyle=orthogonalEdgeStyle;rounded=0;orthogonalLoop=1;jettySize=auto;html=1;exitX=0.75;exitY=1;exitDx=0;exitDy=0;entryX=0.75;entryY=0;entryDx=0;entryDy=0;" parent="1" source="N1fM-q_MzPPThsU6vhpB-34" target="N1fM-q_MzPPThsU6vhpB-38" edge="1">
                    <mxGeometry relative="1" as="geometry"/>
                </mxCell>
                <mxCell id="N1fM-q_MzPPThsU6vhpB-34" value="" style="rounded=0;whiteSpace=wrap;html=1;" parent="1" vertex="1">
                    <mxGeometry x="500" y="10" width="20" height="20" as="geometry"/>
                </mxCell>
                <mxCell id="N1fM-q_MzPPThsU6vhpB-35" style="edgeStyle=orthogonalEdgeStyle;rounded=0;orthogonalLoop=1;jettySize=auto;html=1;exitX=0.25;exitY=1;exitDx=0;exitDy=0;" parent="1" source="N1fM-q_MzPPThsU6vhpB-36" edge="1">
                    <mxGeometry relative="1" as="geometry">
                        <mxPoint x="640" y="50" as="targetPoint"/>
                        <Array as="points">
                            <mxPoint x="545" y="50"/>
                        </Array>
                    </mxGeometry>
                </mxCell>
                <mxCell id="N1fM-q_MzPPThsU6vhpB-47" style="edgeStyle=orthogonalEdgeStyle;rounded=0;orthogonalLoop=1;jettySize=auto;html=1;exitX=0.75;exitY=1;exitDx=0;exitDy=0;entryX=0.75;entryY=0;entryDx=0;entryDy=0;" parent="1" source="N1fM-q_MzPPThsU6vhpB-36" target="N1fM-q_MzPPThsU6vhpB-40" edge="1">
                    <mxGeometry relative="1" as="geometry"/>
                </mxCell>
                <mxCell id="N1fM-q_MzPPThsU6vhpB-36" value="" style="rounded=0;whiteSpace=wrap;html=1;" parent="1" vertex="1">
                    <mxGeometry x="540" y="10" width="20" height="20" as="geometry"/>
                </mxCell>
                <mxCell id="N1fM-q_MzPPThsU6vhpB-37" style="edgeStyle=orthogonalEdgeStyle;rounded=0;orthogonalLoop=1;jettySize=auto;html=1;exitX=0.25;exitY=1;exitDx=0;exitDy=0;entryX=0.25;entryY=1;entryDx=0;entryDy=0;endArrow=none;endFill=0;" parent="1" source="N1fM-q_MzPPThsU6vhpB-38" target="N1fM-q_MzPPThsU6vhpB-40" edge="1">
                    <mxGeometry relative="1" as="geometry"/>
                </mxCell>
                <mxCell id="N1fM-q_MzPPThsU6vhpB-38" value="" style="rounded=0;whiteSpace=wrap;html=1;" parent="1" vertex="1">
                    <mxGeometry x="500" y="70" width="20" height="20" as="geometry"/>
                </mxCell>
                <mxCell id="N1fM-q_MzPPThsU6vhpB-39" style="edgeStyle=orthogonalEdgeStyle;rounded=0;orthogonalLoop=1;jettySize=auto;html=1;exitX=0.25;exitY=1;exitDx=0;exitDy=0;" parent="1" source="N1fM-q_MzPPThsU6vhpB-40" edge="1">
                    <mxGeometry relative="1" as="geometry">
                        <mxPoint x="640" y="110" as="targetPoint"/>
                        <Array as="points">
                            <mxPoint x="545" y="110"/>
                        </Array>
                    </mxGeometry>
                </mxCell>
                <mxCell id="N1fM-q_MzPPThsU6vhpB-40" value="" style="rounded=0;whiteSpace=wrap;html=1;" parent="1" vertex="1">
                    <mxGeometry x="540" y="70" width="20" height="20" as="geometry"/>
                </mxCell>
                <mxCell id="N1fM-q_MzPPThsU6vhpB-50" value="R1" style="text;html=1;align=center;verticalAlign=middle;resizable=0;points=[];autosize=1;strokeColor=none;fillColor=none;" parent="1" vertex="1">
                    <mxGeometry x="340" y="228" width="40" height="30" as="geometry"/>
                </mxCell>
                <mxCell id="N1fM-q_MzPPThsU6vhpB-51" value="R2" style="text;html=1;align=center;verticalAlign=middle;resizable=0;points=[];autosize=1;strokeColor=none;fillColor=none;" parent="1" vertex="1">
                    <mxGeometry x="330" y="368" width="40" height="30" as="geometry"/>
                </mxCell>
                <mxCell id="N1fM-q_MzPPThsU6vhpB-52" value="R3" style="text;html=1;align=center;verticalAlign=middle;resizable=0;points=[];autosize=1;strokeColor=none;fillColor=none;" parent="1" vertex="1">
                    <mxGeometry x="250" y="288" width="40" height="30" as="geometry"/>
                </mxCell>
                <mxCell id="N1fM-q_MzPPThsU6vhpB-53" value="R4" style="text;html=1;align=center;verticalAlign=middle;resizable=0;points=[];autosize=1;strokeColor=none;fillColor=none;" parent="1" vertex="1">
                    <mxGeometry x="430" y="278" width="40" height="30" as="geometry"/>
                </mxCell>
                <mxCell id="N1fM-q_MzPPThsU6vhpB-62" value="R1" style="text;html=1;align=center;verticalAlign=middle;resizable=0;points=[];autosize=1;strokeColor=none;fillColor=none;" parent="1" vertex="1">
                    <mxGeometry x="810" y="338" width="40" height="30" as="geometry"/>
                </mxCell>
                <mxCell id="N1fM-q_MzPPThsU6vhpB-63" value="R2" style="text;html=1;align=center;verticalAlign=middle;resizable=0;points=[];autosize=1;strokeColor=none;fillColor=none;" parent="1" vertex="1">
                    <mxGeometry x="830" y="380" width="40" height="30" as="geometry"/>
                </mxCell>
                <mxCell id="N1fM-q_MzPPThsU6vhpB-64" value="R3" style="text;html=1;align=center;verticalAlign=middle;resizable=0;points=[];autosize=1;strokeColor=none;fillColor=none;" parent="1" vertex="1">
                    <mxGeometry x="810" y="440" width="40" height="30" as="geometry"/>
                </mxCell>
                <mxCell id="N1fM-q_MzPPThsU6vhpB-65" value="R4" style="text;html=1;align=center;verticalAlign=middle;resizable=0;points=[];autosize=1;strokeColor=none;fillColor=none;" parent="1" vertex="1">
                    <mxGeometry x="750" y="470" width="40" height="30" as="geometry"/>
                </mxCell>
                <mxCell id="N1fM-q_MzPPThsU6vhpB-71" value="C1" style="text;html=1;align=center;verticalAlign=middle;resizable=0;points=[];autosize=1;strokeColor=none;fillColor=none;" parent="1" vertex="1">
                    <mxGeometry x="680" y="188" width="40" height="30" as="geometry"/>
                </mxCell>
                <mxCell id="N1fM-q_MzPPThsU6vhpB-77" value="C2" style="text;html=1;align=center;verticalAlign=middle;resizable=0;points=[];autosize=1;strokeColor=none;fillColor=none;" parent="1" vertex="1">
                    <mxGeometry x="750" y="178" width="40" height="30" as="geometry"/>
                </mxCell>
                <mxCell id="N1fM-q_MzPPThsU6vhpB-82" value="" style="ellipse;whiteSpace=wrap;html=1;" parent="1" vertex="1">
                    <mxGeometry x="300" y="330" width="10" height="20" as="geometry"/>
                </mxCell>
                <mxCell id="5" value="" style="endArrow=none;html=1;exitX=0;exitY=1;exitDx=0;exitDy=0;entryX=1;entryY=1;entryDx=0;entryDy=0;" edge="1" parent="1" source="N1fM-q_MzPPThsU6vhpB-82" target="N1fM-q_MzPPThsU6vhpB-82">
                    <mxGeometry width="50" height="50" relative="1" as="geometry">
                        <mxPoint x="380" y="370" as="sourcePoint"/>
                        <mxPoint x="430" y="320" as="targetPoint"/>
                    </mxGeometry>
                </mxCell>
                <mxCell id="8" value="" style="ellipse;whiteSpace=wrap;html=1;" vertex="1" parent="1">
                    <mxGeometry x="370" y="260" width="10" height="20" as="geometry"/>
                </mxCell>
                <mxCell id="9" value="" style="endArrow=none;html=1;exitX=0;exitY=1;exitDx=0;exitDy=0;entryX=1;entryY=1;entryDx=0;entryDy=0;" edge="1" parent="1" source="8" target="8">
                    <mxGeometry width="50" height="50" relative="1" as="geometry">
                        <mxPoint x="450" y="300" as="sourcePoint"/>
                        <mxPoint x="500" y="250" as="targetPoint"/>
                    </mxGeometry>
                </mxCell>
                <mxCell id="10" value="" style="ellipse;whiteSpace=wrap;html=1;" vertex="1" parent="1">
                    <mxGeometry x="370" y="400" width="10" height="20" as="geometry"/>
                </mxCell>
                <mxCell id="11" value="" style="endArrow=none;html=1;exitX=0;exitY=1;exitDx=0;exitDy=0;entryX=1;entryY=1;entryDx=0;entryDy=0;" edge="1" parent="1" source="10" target="10">
                    <mxGeometry width="50" height="50" relative="1" as="geometry">
                        <mxPoint x="450" y="440" as="sourcePoint"/>
                        <mxPoint x="500" y="390" as="targetPoint"/>
                    </mxGeometry>
                </mxCell>
                <mxCell id="14" value="" style="ellipse;whiteSpace=wrap;html=1;" vertex="1" parent="1">
                    <mxGeometry x="450" y="330" width="10" height="20" as="geometry"/>
                </mxCell>
                <mxCell id="15" value="" style="endArrow=none;html=1;exitX=0;exitY=1;exitDx=0;exitDy=0;entryX=1;entryY=1;entryDx=0;entryDy=0;" edge="1" parent="1" source="14" target="14">
                    <mxGeometry width="50" height="50" relative="1" as="geometry">
                        <mxPoint x="530" y="370" as="sourcePoint"/>
                        <mxPoint x="580" y="320" as="targetPoint"/>
                    </mxGeometry>
                </mxCell>
                <mxCell id="16" value="" style="ellipse;whiteSpace=wrap;html=1;" vertex="1" parent="1">
                    <mxGeometry x="490" y="420" width="10" height="20" as="geometry"/>
                </mxCell>
                <mxCell id="17" value="" style="endArrow=none;html=1;exitX=0;exitY=1;exitDx=0;exitDy=0;entryX=1;entryY=1;entryDx=0;entryDy=0;" edge="1" parent="1" source="16" target="16">
                    <mxGeometry width="50" height="50" relative="1" as="geometry">
                        <mxPoint x="570" y="460" as="sourcePoint"/>
                        <mxPoint x="620" y="410" as="targetPoint"/>
                    </mxGeometry>
                </mxCell>
                <mxCell id="18" value="" style="ellipse;whiteSpace=wrap;html=1;" vertex="1" parent="1">
                    <mxGeometry x="580" y="420" width="10" height="20" as="geometry"/>
                </mxCell>
                <mxCell id="19" value="" style="endArrow=none;html=1;exitX=0;exitY=1;exitDx=0;exitDy=0;entryX=1;entryY=1;entryDx=0;entryDy=0;" edge="1" parent="1" source="18" target="18">
                    <mxGeometry width="50" height="50" relative="1" as="geometry">
                        <mxPoint x="660" y="460" as="sourcePoint"/>
                        <mxPoint x="710" y="410" as="targetPoint"/>
                    </mxGeometry>
                </mxCell>
                <mxCell id="20" value="" style="ellipse;whiteSpace=wrap;html=1;" vertex="1" parent="1">
                    <mxGeometry x="670" y="330" width="10" height="20" as="geometry"/>
                </mxCell>
                <mxCell id="21" value="" style="endArrow=none;html=1;exitX=0;exitY=1;exitDx=0;exitDy=0;entryX=1;entryY=1;entryDx=0;entryDy=0;" edge="1" parent="1" source="20" target="20">
                    <mxGeometry width="50" height="50" relative="1" as="geometry">
                        <mxPoint x="750" y="370" as="sourcePoint"/>
                        <mxPoint x="800" y="320" as="targetPoint"/>
                    </mxGeometry>
                </mxCell>
                <mxCell id="22" value="" style="ellipse;whiteSpace=wrap;html=1;" vertex="1" parent="1">
                    <mxGeometry x="740" y="330" width="10" height="20" as="geometry"/>
                </mxCell>
                <mxCell id="23" value="" style="endArrow=none;html=1;exitX=0;exitY=1;exitDx=0;exitDy=0;entryX=1;entryY=1;entryDx=0;entryDy=0;" edge="1" parent="1" source="22" target="22">
                    <mxGeometry width="50" height="50" relative="1" as="geometry">
                        <mxPoint x="820" y="370" as="sourcePoint"/>
                        <mxPoint x="870" y="320" as="targetPoint"/>
                    </mxGeometry>
                </mxCell>
                <mxCell id="27" value="" style="swimlane;startSize=0;" vertex="1" parent="1">
                    <mxGeometry x="620" y="530" width="150" height="90" as="geometry"/>
                </mxCell>
                <mxCell id="28" value="It&#39;s diode" style="text;html=1;align=center;verticalAlign=middle;resizable=0;points=[];autosize=1;strokeColor=none;fillColor=none;" vertex="1" parent="27">
                    <mxGeometry x="40" y="10" width="70" height="30" as="geometry"/>
                </mxCell>
                <mxCell id="25" value="" style="ellipse;whiteSpace=wrap;html=1;" vertex="1" parent="27">
                    <mxGeometry x="20" y="15" width="10" height="20" as="geometry"/>
                </mxCell>
                <mxCell id="26" value="" style="endArrow=none;html=1;exitX=0;exitY=1;exitDx=0;exitDy=0;entryX=1;entryY=1;entryDx=0;entryDy=0;" edge="1" parent="27" source="25" target="25">
                    <mxGeometry width="50" height="50" relative="1" as="geometry">
                        <mxPoint x="100" y="55" as="sourcePoint"/>
                        <mxPoint x="150" y="5" as="targetPoint"/>
                    </mxGeometry>
                </mxCell>
                <mxCell id="29" value="" style="rounded=0;whiteSpace=wrap;html=1;" vertex="1" parent="27">
                    <mxGeometry x="20" y="50" width="20" height="20" as="geometry"/>
                </mxCell>
                <mxCell id="30" value="It&#39;s button (4pin)" style="text;html=1;align=center;verticalAlign=middle;resizable=0;points=[];autosize=1;strokeColor=none;fillColor=none;" vertex="1" parent="27">
                    <mxGeometry x="40" y="45" width="110" height="30" as="geometry"/>
                </mxCell>
            </root>
        </mxGraphModel>
    </diagram>
</mxfile>